<svg version="1.1" viewBox="0.000000 0.000000 96.000000 96.000000" xmlns="http://www.w3.org/2000/svg" xmlns:xlink="http://www.w3.org/1999/xlink" id="Icons_RightPointingBackhandIndex" overflow="hidden"><path d=" M 85.000000 34.000000 L 35.500000 34.000000 L 54.000000 29.900000 C 56.700001 29.299999 58.400002 26.600000 57.799999 23.900000 C 57.200001 21.200001 54.500000 19.500000 51.799999 20.100000 L 24.799999 26.100000 C 23.799999 26.400000 22.799999 27.000000 22.000000 28.000000 L 13.500000 39.000000 L 6.000000 39.000000 L 6.000000 68.000000 L 11.000000 68.000000 C 18.100000 68.000000 18.600000 76.000000 32.000000 76.000000 C 35.200001 76.000000 45.799999 76.000000 50.000000 76.000000 C 53.299999 76.000000 56.000000 73.300003 56.000000 70.000000 C 56.000000 68.400002 55.400002 67.000000 54.400002 66.000000 C 54.599998 66.000000 54.799999 66.000000 55.000000 66.000000 C 58.299999 66.000000 61.000000 63.299999 61.000000 60.000000 C 61.000000 58.400002 60.400002 56.900002 59.299999 55.799999 C 62.000000 55.200001 64.000000 52.799999 64.000000 50.000000 C 64.000000 46.700001 61.299999 44.000000 58.000000 44.000000 L 85.000000 44.000000 C 87.800003 44.000000 90.000000 41.799999 90.000000 39.000000 C 90.000000 36.200001 87.800003 34.000000 85.000000 34.000000 Z" stroke="none" stroke-width="1.000000" stroke-dasharray="" stroke-dashoffset="1.000000" fill="#083D77" fill-opacity="1.000000"/></svg>